<?xml version="1.0" standalone="no"?><!DOCTYPE svg PUBLIC "-//W3C//DTD SVG 1.1//EN" "http://www.w3.org/Graphics/SVG/1.1/DTD/svg11.dtd"><svg t="1566212028101" class="icon" viewBox="0 0 1024 1024" version="1.1" xmlns="http://www.w3.org/2000/svg" p-id="4630" xmlns:xlink="http://www.w3.org/1999/xlink" width="200" height="200"><defs><style type="text/css"></style></defs><path d="M517.76 306.56c-17.92 0-32-14.08-32-32V161.28c0-17.92 14.08-32 32-32s32 14.08 32 32v113.28c0 17.92-14.08 32-32 32zM517.76 890.88c-17.92 0-32-14.08-32-32v-113.28c0-17.92 14.08-32 32-32s32 14.08 32 32v113.28c0 17.28-14.08 32-32 32zM866.56 542.08h-113.28c-17.92 0-32-14.08-32-32s14.08-32 32-32h113.28c17.92 0 32 14.08 32 32 0 17.28-14.72 32-32 32zM282.24 542.08H168.96c-17.92 0-32-14.08-32-32s14.08-32 32-32h113.28c17.92 0 32 14.08 32 32 0 17.28-14.08 32-32 32zM684.16 375.68c-8.32 0-16.64-3.2-22.4-9.6-12.8-12.8-12.8-32.64 0-45.44l80-80c12.8-12.8 32.64-12.8 45.44 0s12.8 32.64 0 45.44l-80 80c-7.04 6.4-14.72 9.6-23.04 9.6zM271.36 788.48c-8.32 0-16.64-3.2-22.4-9.6-12.8-12.8-12.8-32.64 0-45.44l80-80c12.8-12.8 32.64-12.8 45.44 0s12.8 32.64 0 45.44L294.4 778.88c-7.04 6.4-15.36 9.6-23.04 9.6zM764.16 788.48c-8.32 0-16.64-3.2-22.4-9.6l-80-80c-12.8-12.8-12.8-32.64 0-45.44s32.64-12.8 45.44 0l80 80c12.8 12.8 12.8 32.64 0 45.44-6.4 6.4-14.72 9.6-23.04 9.6zM351.36 375.68c-8.32 0-16.64-3.2-22.4-9.6L248.32 286.08c-12.8-12.8-12.8-32.64 0-45.44s32.64-12.8 45.44 0l80 80c12.8 12.8 12.8 32.64 0 45.44-5.76 6.4-14.08 9.6-22.4 9.6z" fill="#515151" p-id="4631"></path></svg>